<svg role="img" viewBox="0 0 24 24" xmlns="http://www.w3.org/2000/svg"><title>Fiverr</title><g transform="translate(3.945,2.000) scale(0.03413)"><g transform="translate(-260.000000,826.000000) scale(0.100000,-0.100000)" fill="#000000" stroke="none"><path d="M4900 8253 c-19 -1 -84 -8 -145 -13 -206 -20 -449 -86 -621 -170
-358 -173 -612 -489 -714 -888 -39 -155 -43 -187 -49 -447 l-6 -260 -382 -3
-383 -2 0 -555 0 -555 385 0 385 0 0 -1480 0 -1480 665 0 665 0 0 1480 0 1480
645 0 645 0 0 -1480 0 -1480 665 0 665 0 0 2035 0 2035 -1307 2 -1308 3 -3
115 c-6 244 49 381 193 480 102 70 186 79 703 80 l382 0 0 555 0 555 -522 -2
c-288 0 -539 -3 -558 -5z"/></g></g></svg>